<svg width="16" height="14" viewBox="0 0 16 14" fill="none" xmlns="http://www.w3.org/2000/svg">
<path d="M1.16667 14C0.836115 14 0.558837 13.888 0.334837 13.664C0.110838 13.44 -0.00077374 13.1631 4.0369e-06 12.8333V1.16667C4.0369e-06 0.836115 0.112004 0.558837 0.336004 0.334837C0.560004 0.110838 0.836893 -0.00077374 1.16667 4.0369e-06C1.49723 4.0369e-06 1.7745 0.112004 1.9985 0.336004C2.2225 0.560004 2.33411 0.836892 2.33334 1.16667V12.8333C2.33334 13.1639 2.22134 13.4412 1.99734 13.6652C1.77334 13.8892 1.49645 14.0008 1.16667 14ZM13.3583 12.8042L6.125 7.9625C5.775 7.72917 5.6 7.40833 5.6 7C5.6 6.59167 5.775 6.27083 6.125 6.0375L13.3583 1.19584C13.7472 0.943059 14.1458 0.92867 14.5542 1.15267C14.9625 1.37667 15.1667 1.72161 15.1667 2.1875V11.8125C15.1667 12.2792 14.9625 12.6292 14.5542 12.8625C14.1458 13.0958 13.7472 13.0764 13.3583 12.8042Z" fill="black"/>
</svg>
