<svg width="14" height="14" viewBox="0 0 14 14" fill="none" xmlns="http://www.w3.org/2000/svg">
<path d="M12.5566 7.7C12.4008 8.93368 11.839 10.0805 10.9597 10.9597C10.0805 11.839 8.93368 12.4008 7.7 12.5566V14H6.3V12.5566C5.06632 12.4008 3.91953 11.839 3.04026 10.9597C2.16099 10.0805 1.59921 8.93368 1.4434 7.7H0V6.3H1.4434C1.59921 5.06632 2.16099 3.91953 3.04026 3.04026C3.91953 2.16099 5.06632 1.59921 6.3 1.4434V0H7.7V1.4434C8.93368 1.59921 10.0805 2.16099 10.9597 3.04026C11.839 3.91953 12.4008 5.06632 12.5566 6.3H14V7.7H12.5566ZM7 11.2C8.11391 11.2 9.1822 10.7575 9.96985 9.96985C10.7575 9.1822 11.2 8.11391 11.2 7C11.2 5.88609 10.7575 4.8178 9.96985 4.03015C9.1822 3.2425 8.11391 2.8 7 2.8C5.88609 2.8 4.8178 3.2425 4.03015 4.03015C3.2425 4.8178 2.8 5.88609 2.8 7C2.8 8.11391 3.2425 9.1822 4.03015 9.96985C4.8178 10.7575 5.88609 11.2 7 11.2ZM7 9.1C7.55695 9.1 8.0911 8.87875 8.48492 8.48492C8.87875 8.0911 9.1 7.55695 9.1 7C9.1 6.44305 8.87875 5.9089 8.48492 5.51508C8.0911 5.12125 7.55695 4.9 7 4.9C6.44305 4.9 5.9089 5.12125 5.51508 5.51508C5.12125 5.9089 4.9 6.44305 4.9 7C4.9 7.55695 5.12125 8.0911 5.51508 8.48492C5.9089 8.87875 6.44305 9.1 7 9.1Z" fill="black"/>
</svg>
