<svg width="19" height="14" viewBox="0 0 19 14" fill="none" xmlns="http://www.w3.org/2000/svg">
<path d="M9.67052 0.0982778C9.33109 -0.0661571 8.9275 -0.0216905 8.63193 0.212489L4.11362 3.78771H0.984046C0.440816 3.78771 0 4.22807 0 4.77143V9.22832C0 9.77155 0.440693 10.2119 0.984046 10.2119H4.11329L8.6316 13.7874C8.80884 13.9275 9.02446 14 9.24199 14C9.38803 14 9.53391 13.967 9.6702 13.9016C10.0104 13.7372 10.226 13.3928 10.226 13.0159V0.983891C10.2256 0.606713 10.0098 0.262328 9.6702 0.0983678L9.67052 0.0982778Z" fill="black"/>
<path d="M13.8408 3.51671C13.4564 3.13233 12.8333 3.13233 12.4498 3.51671C12.0654 3.90108 12.0654 4.52413 12.4498 4.9077C13.6031 6.06116 13.6031 7.9381 12.4498 9.09147C12.0654 9.47552 12.0654 10.0986 12.4498 10.4823C12.6414 10.6749 12.8937 10.771 13.1452 10.771C13.3975 10.771 13.6486 10.6749 13.8407 10.4823C14.7715 9.55153 15.2838 8.3152 15.2838 6.99938C15.2838 5.68389 14.7709 4.44662 13.8407 3.51662L13.8408 3.51671Z" fill="black"/>
</svg>
